<svg xmlns="http://www.w3.org/2000/svg" xmlns:xlink="http://www.w3.org/1999/xlink" width="228.5595" height="263.0171" viewBox="0 0 228.5595 263.0171"><defs><style>.a0ae5174-ff2a-4857-97be-e9188cddae0e{fill:url(#fabc92bc-8f19-455d-b093-9fe0bb2dafa5);}.e1f33e67-8bc1-485a-98e1-4c76c5959b38{fill:url(#ff5b4b74-57c8-4a8a-87f0-90de4c362bf3);}.ac63939a-b9b1-4d49-abc5-8d062cd6268d{fill:url(#ebeb6740-d1b3-405d-ad93-044050993b26);}.a1398d94-338d-4a5c-a1a5-458155b48d50{fill:url(#b6a32d0f-a0be-42bb-87bf-f9396fc64532);}.fe0c3cd9-13e2-4e3a-9dbc-1cabc5af0150{fill:url(#b40d243e-84ce-456a-81ec-7a667148a002);}.aaa6052f-3add-4015-99b1-4dac418daafd{fill:url(#ba9e47f7-53a0-4cab-baad-292a21e65a95);}.acf3f3e2-59dc-4d7a-bd33-5800443b9556{fill:url(#b91a7459-be72-4ba7-99ad-64c0ff3093d8);}.b36090ce-9ed6-45ec-817c-9c33e87a69ae{fill:url(#a3bdbcb5-5707-49b0-9ef7-9564c35a0332);}.abc5ad91-4f2f-4bca-ae5c-53311972c736{fill:url(#af373a22-2a97-45f4-a2eb-cdf44e2c379b);}.ac9d92e0-d8da-4713-954d-fdeabc939700{fill:url(#a541ae5d-d859-457e-a691-491c6e459d9b);}.adc43a10-e99e-4495-9d4b-0b49becc7a44{fill:url(#ad9af065-8c3f-47b3-a5b9-df85a77daa61);}.b24e5a75-1951-4d31-8532-26f7ef9909eb{fill:url(#f30a5731-243b-4953-8d6a-919c5650d77a);}.a5bab618-64e3-47fe-9e3b-ccf3509e8c8a{fill:url(#fd673b40-b3dd-4444-9102-56383373261d);}.e767d8b8-5d44-4a96-b43c-c6d3c3ea34e7{fill:url(#f255695a-d110-4707-bb78-3f3f0d17bda5);}</style><linearGradient id="fabc92bc-8f19-455d-b093-9fe0bb2dafa5" x1="92.157" y1="156.8247" x2="177.2092" y2="156.8247" gradientUnits="userSpaceOnUse"><stop offset="0" stop-color="#c2c33b"/><stop offset="1" stop-color="#ffdb00"/></linearGradient><linearGradient id="ff5b4b74-57c8-4a8a-87f0-90de4c362bf3" x1="51.0098" y1="254.1503" x2="100.4187" y2="172.3701" gradientUnits="userSpaceOnUse"><stop offset="0" stop-color="#7cd700"/><stop offset="1" stop-color="#c2c33b"/></linearGradient><linearGradient id="ebeb6740-d1b3-405d-ad93-044050993b26" x1="12.767" y1="43.4856" x2="47.8739" y2="43.4856" gradientUnits="userSpaceOnUse"><stop offset="0" stop-color="#ecea33"/><stop offset="1" stop-color="#7cd700"/></linearGradient><linearGradient id="b6a32d0f-a0be-42bb-87bf-f9396fc64532" x1="59.7455" y1="218.8814" x2="101.1331" y2="218.8814" gradientUnits="userSpaceOnUse"><stop offset="0" stop-color="#fc2a90"/><stop offset="1" stop-color="#7053e0"/></linearGradient><linearGradient id="b40d243e-84ce-456a-81ec-7a667148a002" x1="109.4979" y1="213.3434" x2="151.1121" y2="148.9592" gradientUnits="userSpaceOnUse"><stop offset="0" stop-color="#7053e0"/><stop offset="1" stop-color="#45b599"/></linearGradient><linearGradient id="ba9e47f7-53a0-4cab-baad-292a21e65a95" x1="153.1554" y1="10.2136" x2="58.0828" y2="10.2136" gradientUnits="userSpaceOnUse"><stop offset="0" stop-color="#ec6047"/><stop offset="1" stop-color="#e43c51"/></linearGradient><linearGradient id="b91a7459-be72-4ba7-99ad-64c0ff3093d8" x1="10.2136" y1="238.5426" x2="10.2136" y2="56.9883" gradientUnits="userSpaceOnUse"><stop offset="0" stop-color="#7cd700"/><stop offset="0.2944" stop-color="#a7de13"/><stop offset="0.5996" stop-color="#cce525"/><stop offset="0.8457" stop-color="#e4e92f"/><stop offset="1" stop-color="#ecea33"/></linearGradient><linearGradient id="a3bdbcb5-5707-49b0-9ef7-9564c35a0332" x1="192.7559" y1="148.5606" x2="185.0958" y2="17.4851" gradientUnits="userSpaceOnUse"><stop offset="0" stop-color="#ffdb00"/><stop offset="1" stop-color="#ec6047"/></linearGradient><linearGradient id="af373a22-2a97-45f4-a2eb-cdf44e2c379b" x1="45.3215" y1="204.4171" x2="45.3215" y2="23.5581" gradientUnits="userSpaceOnUse"><stop offset="0" stop-color="#fc2a90"/><stop offset="1" stop-color="#e43c51"/></linearGradient><linearGradient id="a541ae5d-d859-457e-a691-491c6e459d9b" x1="59.7447" y1="218.8814" x2="101.1329" y2="218.8814" xlink:href="#b6a32d0f-a0be-42bb-87bf-f9396fc64532"/><linearGradient id="ad9af065-8c3f-47b3-a5b9-df85a77daa61" x1="81.2153" y1="22.6178" x2="194.4167" y2="114.5406" gradientUnits="userSpaceOnUse"><stop offset="0" stop-color="#7cd700"/><stop offset="1" stop-color="#46b29b"/></linearGradient><linearGradient id="f30a5731-243b-4953-8d6a-919c5650d77a" x1="115.643" y1="222.8959" x2="160.7531" y2="153.1032" xlink:href="#b40d243e-84ce-456a-81ec-7a667148a002"/><linearGradient id="fd673b40-b3dd-4444-9102-56383373261d" x1="72.4914" y1="132.0766" x2="148.2426" y2="74.1992" gradientUnits="userSpaceOnUse"><stop offset="0" stop-color="#7053e0"/><stop offset="1" stop-color="#fc2a90"/></linearGradient><linearGradient id="f255695a-d110-4707-bb78-3f3f0d17bda5" x1="81.092" y1="242.6049" x2="81.092" y2="168.204" xlink:href="#ff5b4b74-57c8-4a8a-87f0-90de4c362bf3"/></defs><title>Asset 5</title><g id="a917ad4d-791d-45c7-b1b6-216683655e87"><g id="bfc94a17-3401-4494-80fb-3faf2a7c8a1d"><path class="a0ae5174-ff2a-4857-97be-e9188cddae0e" d="M164.8925,167.9746H91.3056l-11.2085-5.251-9.2187-15.1763H172.9843A36.2528,36.2528,0,0,0,183.5,145.7729c5.7-1.7671,2.5371,20.9087-4.5909,21.5806C175.17,167.706,170.4833,167.9746,164.8925,167.9746Z"/><polygon class="e1f33e67-8bc1-485a-98e1-4c76c5959b38" points="70.878 242.589 20.427 242.589 8.775 250.838 0 263.017 91.306 263.017 83.642 250.247 70.878 242.589"/><polygon class="ac63939a-b9b1-4d49-abc5-8d062cd6268d" points="20.427 53.699 35.107 53.699 35.107 33.272 0 33.272 9.871 47.399 20.427 53.699"/><polygon class="a1398d94-338d-4a5c-a1a5-458155b48d50" points="35.108 229.095 70.878 229.095 70.878 208.668 55.535 208.668 44.049 215.898 35.108 229.095"/><polygon class="fe0c3cd9-13e2-4e3a-9dbc-1cabc5af0150" points="125.429 229.095 125.429 200.328 121.198 187.587 105.001 179.901 105.001 208.668 110.219 221.544 125.429 229.095"/><polygon class="aaa6052f-3add-4015-99b1-4dac418daafd" points="145.493 0 35.108 0 44.486 19.592 55.535 20.427 145.493 20.427 155.708 9.724 145.493 0"/><polygon class="acf3f3e2-59dc-4d7a-bd33-5800443b9556" points="0 33.272 0 263.017 20.427 242.589 20.427 53.699 0 33.272"/><path class="b36090ce-9ed6-45ec-817c-9c33e87a69ae" d="M189.7333,165.705A54.3383,54.3383,0,0,0,228.56,113.5293V83.0669A83.1606,83.1606,0,0,0,145.4931,0V20.4272a62.7112,62.7112,0,0,1,62.6406,62.64v30.4624a33.9731,33.9731,0,0,1-14.6816,28.0254Z"/><polygon class="abc5ad91-4f2f-4bca-ae5c-53311972c736" points="55.535 33.272 55.535 20.427 35.108 0 35.108 33.272 35.108 53.699 35.108 229.095 55.535 208.668 55.535 53.699 55.535 33.272"/><polygon class="ac9d92e0-d8da-4713-954d-fdeabc939700" points="105.001 208.668 91.306 208.668 91.306 229.095 125.429 229.095 105.001 208.668"/><path class="adc43a10-e99e-4495-9d4b-0b49becc7a44" d="M193.4521,141.5547V87.7182a54.5072,54.5072,0,0,0-54.4453-54.4463H55.5351V53.6992h83.4717a34.0579,34.0579,0,0,1,34.0185,34.019l-.041,59.8291s6.3457,3.1822,11.878,1.5865S193.4521,141.5547,193.4521,141.5547Z"/><path class="b24e5a75-1951-4d31-8532-26f7ef9909eb" d="M193.4521,141.5547c0-7.4229-20.4678-2.5088-20.4678,5.9926s-2.5283,14.479-8.0918,20.4273a34.0362,34.0362,0,0,1-25.8857,11.9262H105.0014l20.4273,20.4268h13.5781a54.4739,54.4739,0,0,0,50.0469-32.9731c.23-.5039.457-1.0508.68-1.6495C193.1621,156.4746,193.4521,148.9775,193.4521,141.5547Z"/><path class="a5bab618-64e3-47fe-9e3b-ccf3509e8c8a" d="M134.6582,68.1425h-63.78v63.8584h87.0034V91.3657A23.2507,23.2507,0,0,0,134.6582,68.1425ZM91.3056,111.5732V88.57h43.3526a2.7989,2.7989,0,0,1,2.7959,2.7954v20.2075Z"/><polygon class="e767d8b8-5d44-4a96-b43c-c6d3c3ea34e7" points="70.878 229.095 70.878 242.589 91.306 263.017 91.306 229.095 91.306 208.668 91.306 167.975 70.878 147.547 70.878 208.668 70.878 229.095"/></g></g></svg>